HIERARCHY
ROOT Root
{
  OFFSET 0.0 0.0 0.0
  CHANNELS 6 Xposition Yposition Zposition Zrotation Yrotation Xrotation
  JOINT Hips
  {
    OFFSET 0.0 100.0 0.0
    CHANNELS 6 Xposition Yposition Zposition Zrotation Yrotation Xrotation
    JOINT Spine1
    {
      OFFSET 5.003913 -0.037094 -0.013727
      CHANNELS 3 Zrotation Yrotation Xrotation
      JOINT Spine2
      {
        OFFSET 7.125363 -1e-06 0.0
        CHANNELS 3 Zrotation Yrotation Xrotation
        JOINT Chest
        {
          OFFSET 7.594027 1e-06 0.0
          CHANNELS 3 Zrotation Yrotation Xrotation
          JOINT Neck1
          {
            OFFSET 26.313086 -0.460272 -0.181672
            CHANNELS 3 Zrotation Yrotation Xrotation
            JOINT Neck2
            {
              OFFSET 8.045911 0.0 0.0
              CHANNELS 3 Zrotation Yrotation Xrotation
              JOINT Head
              {
                OFFSET 6.432774 0.0 0.0
                CHANNELS 3 Zrotation Yrotation Xrotation
                JOINT HeadEnd
                {
                  OFFSET 16.169773 0.06451 0.00362
                  CHANNELS 3 Zrotation Yrotation Xrotation
                }
                JOINT Jaw
                {
                  OFFSET 0.108741 3.12938 0.002639
                  CHANNELS 3 Zrotation Yrotation Xrotation
                }
                JOINT LeftEye
                {
                  OFFSET 4.45173 8.166359 3.206392
                  CHANNELS 3 Zrotation Yrotation Xrotation
                }
                JOINT RightEye
                {
                  OFFSET 4.436895 8.135758 -3.222429
                  CHANNELS 3 Zrotation Yrotation Xrotation
                }
              }
            }
          }
          JOINT LeftShoulder
          {
            OFFSET 23.218927 5.195579 1.621656
            CHANNELS 3 Zrotation Yrotation Xrotation
            JOINT LeftArm
            {
              OFFSET 15.902118 2e-06 -2e-06
              CHANNELS 3 Zrotation Yrotation Xrotation
              JOINT LeftForeArm
              {
                OFFSET 28.739307 0.0 -1e-06
                CHANNELS 3 Zrotation Yrotation Xrotation
                JOINT LeftHand
                {
                  OFFSET 27.093981 -4e-06 0.0
                  CHANNELS 3 Zrotation Yrotation Xrotation
                  JOINT LeftHandThumb1
                  {
                    OFFSET 2.276781 3.380274 0.83384
                    CHANNELS 3 Zrotation Yrotation Xrotation
                    JOINT LeftHandThumb2
                    {
                      OFFSET 4.705309 -1e-06 -1e-06
                      CHANNELS 3 Zrotation Yrotation Xrotation
                      JOINT LeftHandThumb3
                      {
                        OFFSET 2.798515 0.0 3e-06
                        CHANNELS 3 Zrotation Yrotation Xrotation
                        JOINT LeftHandThumbEnd
                        {
                          OFFSET 3.180793 4e-06 -4e-06
                          CHANNELS 3 Zrotation Yrotation Xrotation
                        }
                      }
                    }
                  }
                  JOINT LeftHandIndex1
                  {
                    OFFSET 3.247786 2.352677 0.137192
                    CHANNELS 3 Zrotation Yrotation Xrotation
                    JOINT LeftHandIndex2
                    {
                      OFFSET 6.367095 1e-06 0.0
                      CHANNELS 3 Zrotation Yrotation Xrotation
                      JOINT LeftHandIndex3
                      {
                        OFFSET 3.662364 0.0 0.0
                        CHANNELS 3 Zrotation Yrotation Xrotation
                        JOINT LeftHandIndex4
                        {
                          OFFSET 2.329242 4e-06 -4e-06
                          CHANNELS 3 Zrotation Yrotation Xrotation
                          JOINT LeftHandIndexEnd
                          {
                            OFFSET 2.767823 1e-06 0.0
                            CHANNELS 3 Zrotation Yrotation Xrotation
                          }
                        }
                      }
                    }
                  }
                  JOINT LeftHandMiddle1
                  {
                    OFFSET 3.163612 0.945023 -0.406112
                    CHANNELS 3 Zrotation Yrotation Xrotation
                    JOINT LeftHandMiddle2
                    {
                      OFFSET 6.276789 3e-06 0.0
                      CHANNELS 3 Zrotation Yrotation Xrotation
                      JOINT LeftHandMiddle3
                      {
                        OFFSET 4.35652 -1e-06 4e-06
                        CHANNELS 3 Zrotation Yrotation Xrotation
                        JOINT LeftHandMiddle4
                        {
                          OFFSET 2.996877 0.0 8e-06
                          CHANNELS 3 Zrotation Yrotation Xrotation
                          JOINT LeftHandMiddleEnd
                          {
                            OFFSET 2.323256 3e-06 -4e-06
                            CHANNELS 3 Zrotation Yrotation Xrotation
                          }
                        }
                      }
                    }
                  }
                  JOINT LeftHandRing1
                  {
                    OFFSET 2.882606 -0.309162 0.107445
                    CHANNELS 3 Zrotation Yrotation Xrotation
                    JOINT LeftHandRing2
                    {
                      OFFSET 6.033198 0.0 4e-06
                      CHANNELS 3 Zrotation Yrotation Xrotation
                      JOINT LeftHandRing3
                      {
                        OFFSET 4.350578 3e-06 0.0
                        CHANNELS 3 Zrotation Yrotation Xrotation
                        JOINT LeftHandRing4
                        {
                          OFFSET 2.651321 2e-06 -7e-06
                          CHANNELS 3 Zrotation Yrotation Xrotation
                          JOINT LeftHandRingEnd
                          {
                            OFFSET 1.937663 1e-06 -4e-06
                            CHANNELS 3 Zrotation Yrotation Xrotation
                          }
                        }
                      }
                    }
                  }
                  JOINT LeftHandPinky1
                  {
                    OFFSET 2.865315 -1.525436 0.575687
                    CHANNELS 3 Zrotation Yrotation Xrotation
                    JOINT LeftHandPinky2
                    {
                      OFFSET 5.54936 1e-06 -8e-06
                      CHANNELS 3 Zrotation Yrotation Xrotation
                      JOINT LeftHandPinky3
                      {
                        OFFSET 3.070974 0.0 -4e-06
                        CHANNELS 3 Zrotation Yrotation Xrotation
                        JOINT LeftHandPinky4
                        {
                          OFFSET 1.549672 1e-06 0.0
                          CHANNELS 3 Zrotation Yrotation Xrotation
                          JOINT LeftHandPinkyEnd
                          {
                            OFFSET 1.952123 0.0 0.0
                            CHANNELS 3 Zrotation Yrotation Xrotation
                          }
                        }
                      }
                    }
                  }
                }
              }
            }
          }
          JOINT RightShoulder
          {
            OFFSET 23.161716 5.296122 -1.380114
            CHANNELS 3 Zrotation Yrotation Xrotation
            JOINT RightArm
            {
              OFFSET -16.027195 -2e-06 1.1e-05
              CHANNELS 3 Zrotation Yrotation Xrotation
              JOINT RightForeArm
              {
                OFFSET -28.736639 4e-06 2e-06
                CHANNELS 3 Zrotation Yrotation Xrotation
                JOINT RightHand
                {
                  OFFSET -27.133619 6e-06 0.0
                  CHANNELS 3 Zrotation Yrotation Xrotation
                  JOINT RightHandThumb1
                  {
                    OFFSET -2.274328 -3.351035 -0.83067
                    CHANNELS 3 Zrotation Yrotation Xrotation
                    JOINT RightHandThumb2
                    {
                      OFFSET -4.703594 -3e-06 2e-06
                      CHANNELS 3 Zrotation Yrotation Xrotation
                      JOINT RightHandThumb3
                      {
                        OFFSET -2.794935 -4e-06 -3e-06
                        CHANNELS 3 Zrotation Yrotation Xrotation
                        JOINT RightHandThumbEnd
                        {
                          OFFSET -3.183852 4e-06 1e-06
                          CHANNELS 3 Zrotation Yrotation Xrotation
                        }
                      }
                    }
                  }
                  JOINT RightHandIndex1
                  {
                    OFFSET -3.253496 -2.33755 -0.127667
                    CHANNELS 3 Zrotation Yrotation Xrotation
                    JOINT RightHandIndex2
                    {
                      OFFSET -6.344434 0.0 0.0
                      CHANNELS 3 Zrotation Yrotation Xrotation
                      JOINT RightHandIndex3
                      {
                        OFFSET -3.654871 0.0 -8e-06
                        CHANNELS 3 Zrotation Yrotation Xrotation
                        JOINT RightHandIndex4
                        {
                          OFFSET -2.327586 -1e-06 0.0
                          CHANNELS 3 Zrotation Yrotation Xrotation
                          JOINT RightHandIndexEnd
                          {
                            OFFSET -2.770001 3e-06 8e-06
                            CHANNELS 3 Zrotation Yrotation Xrotation
                          }
                        }
                      }
                    }
                  }
                  JOINT RightHandMiddle1
                  {
                    OFFSET -3.168223 -0.944764 0.411762
                    CHANNELS 3 Zrotation Yrotation Xrotation
                    JOINT RightHandMiddle2
                    {
                      OFFSET -6.266691 -1e-06 -4e-06
                      CHANNELS 3 Zrotation Yrotation Xrotation
                      JOINT RightHandMiddle3
                      {
                        OFFSET -4.348901 0.0 0.0
                        CHANNELS 3 Zrotation Yrotation Xrotation
                        JOINT RightHandMiddle4
                        {
                          OFFSET -3.00024 2e-06 -4e-06
                          CHANNELS 3 Zrotation Yrotation Xrotation
                          JOINT RightHandMiddleEnd
                          {
                            OFFSET -2.321477 -4e-06 -4e-06
                            CHANNELS 3 Zrotation Yrotation Xrotation
                          }
                        }
                      }
                    }
                  }
                  JOINT RightHandRing1
                  {
                    OFFSET -2.885654 0.293261 -0.119232
                    CHANNELS 3 Zrotation Yrotation Xrotation
                    JOINT RightHandRing2
                    {
                      OFFSET -6.032835 -1e-06 -4e-06
                      CHANNELS 3 Zrotation Yrotation Xrotation
                      JOINT RightHandRing3
                      {
                        OFFSET -4.33881 0.0 -4e-06
                        CHANNELS 3 Zrotation Yrotation Xrotation
                        JOINT RightHandRing4
                        {
                          OFFSET -2.654903 -4e-06 -4e-06
                          CHANNELS 3 Zrotation Yrotation Xrotation
                          JOINT RightHandRingEnd
                          {
                            OFFSET -1.935122 0.0 4e-06
                            CHANNELS 3 Zrotation Yrotation Xrotation
                          }
                        }
                      }
                    }
                  }
                  JOINT RightHandPinky1
                  {
                    OFFSET -2.866241 1.503904 -0.60527
                    CHANNELS 3 Zrotation Yrotation Xrotation
                    JOINT RightHandPinky2
                    {
                      OFFSET -5.553177 -2e-06 0.0
                      CHANNELS 3 Zrotation Yrotation Xrotation
                      JOINT RightHandPinky3
                      {
                        OFFSET -3.062664 -1e-06 -4e-06
                        CHANNELS 3 Zrotation Yrotation Xrotation
                        JOINT RightHandPinky4
                        {
                          OFFSET -1.546529 2e-06 4e-06
                          CHANNELS 3 Zrotation Yrotation Xrotation
                          JOINT RightHandPinkyEnd
                          {
                            OFFSET -1.952341 0.0 -4e-06
                            CHANNELS 3 Zrotation Yrotation Xrotation
                          }
                        }
                      }
                    }
                  }
                }
              }
            }
          }
        }
      }
    }
    JOINT LeftLeg
    {
      OFFSET -8.443107 2.567604 10.043214
      CHANNELS 3 Zrotation Yrotation Xrotation
      JOINT LeftShin
      {
        OFFSET 43.229198 1e-06 -1e-06
        CHANNELS 3 Zrotation Yrotation Xrotation
        JOINT LeftFoot
        {
          OFFSET 42.298611 1e-06 1e-06
          CHANNELS 3 Zrotation Yrotation Xrotation
          JOINT LeftToeBase
          {
            OFFSET 14.165858 1e-06 0.0
            CHANNELS 3 Zrotation Yrotation Xrotation
            JOINT LeftToeEnd
            {
              OFFSET 6.7141 -0.234461 0.0
              CHANNELS 3 Zrotation Yrotation Xrotation
            }
          }
        }
      }
    }
    JOINT RightLeg
    {
      OFFSET -8.303923 2.592729 -10.047278
      CHANNELS 3 Zrotation Yrotation Xrotation
      JOINT RightShin
      {
        OFFSET -43.369682 0.0 1e-06
        CHANNELS 3 Zrotation Yrotation Xrotation
        JOINT RightFoot
        {
          OFFSET -42.260784 4e-06 2e-06
          CHANNELS 3 Zrotation Yrotation Xrotation
          JOINT RightToeBase
          {
            OFFSET -14.222245 -2e-06 -1e-06
            CHANNELS 3 Zrotation Yrotation Xrotation
            JOINT RightToeEnd
            {
              OFFSET -6.660062 0.232574 -2e-06
              CHANNELS 3 Zrotation Yrotation Xrotation
            }
          }
        }
      }
    }
  }
}
MOTION
Frames: 4
Frame Time: 0.03333333333333333
0.0 0.0 0.0 0.0 -0.0 0.0 0.781001 49.148682 5.806913 95.879013 -56.504204 87.374336 14.837827 0.647489 -0.541616 -4.524086 -0.207598 -0.644087 19.295942 0.478163 -3.154302 33.064621 -4.121059 1.699533 -2.828549 0.380914 -0.512782 -17.877516 -1.849483 -1.922039 6e-06 0.0 0.0 -0.267258 0.097393 0.016748 -0.26076 0.311281 0.017181 -0.235268 -0.112082 0.016749 -18.837713 -66.400665 17.851267 90.382149 -7.664877 -35.311352 4.643848 -1.00284 -0.057647 83.092567 82.223167 89.120689 17.636627 -26.322737 52.411198 -19.466665 -14.395598 29.410395 -1e-06 -8.774822 -2e-06 15.510475 -17.496044 6.304357 -0.609776 -1.795654 -3.889328 -4.807089 -11.046813 -2.93785 4e-06 -20.976025 0.0 -5.019972 -25.033562 -4.031879 5e-06 -2e-06 -0.0 -10.634535 -5.686972 -3.565588 10.573277 -17.922955 -3.113901 3e-06 -13.821214 1e-06 -0.501779 -31.181511 -4.027015 -10.424158 -58.408131 6.743307 -13.982714 -7.150199 -2.875042 13.772731 -8.401494 -3.218242 0.347733 -34.211559 0.771655 -0.963029 -17.733372 2.62102 0.0 -1e-06 -0.0 -17.346418 -20.095224 -4.20178 21.757557 -1.638373 3.866428 1e-06 -6.338826 1e-06 -1.69759 -22.591751 -6.194007 0.0 -4e-06 -2e-06 163.67836 -63.510181 15.466076 90.681084 -10.215573 -41.345356 4.149445 -0.429179 -0.010639 83.850639 68.657951 85.749031 22.182121 -20.3759 49.933323 -16.701818 -16.743532 28.476536 -2e-06 -12.690604 -1e-06 15.926367 -16.49085 2.514444 -0.105919 -1.513856 -4.275882 -5.039042 -5.612874 -2.953557 4e-06 -11.020528 -2e-06 -6.1113 -15.895339 -3.840472 -0.0 -1e-06 0.0 -10.283373 -5.68029 -4.341839 11.028297 -11.302409 -2.372633 -1.384269 -14.238586 -6.320122 -0.625439 -26.924202 -3.827601 -4.220664 -48.168674 -4.09326 -13.708528 -7.363479 -3.720939 18.141153 -14.052743 -3.242675 6e-06 -18.787275 -2e-06 -0.429712 -8.456047 2.555504 0.0 1e-06 0.0 -15.923539 -20.094492 -5.473584 30.419218 -7.190826 1.735927 3e-06 -8.16293 -1e-06 -1.861903 -22.861483 -6.167945 1e-06 -3e-06 -1e-06 125.415703 -0.811501 5.315111 106.354988 -0.144918 0.265847 -75.830841 19.297785 -11.112702 -18.376247 1.434306 1.823228 -0.999998 -1e-06 -0.0 -56.171429 -9.068947 1.08393 111.094879 -0.822427 -0.025472 -80.005478 3.893043 -3.367072 -21.347841 0.86062 1.580425 -1.000003 -0.0 0.0 
0.0 0.0 0.0 0.0 -0.0 0.0 1.012239 49.221775 5.898307 95.654915 -56.414143 87.518539 14.831319 0.757412 -0.516815 -4.595456 -0.145907 -0.582724 19.436964 0.485533 -3.002823 33.107628 -4.253043 1.525076 -2.823707 0.416097 -0.506483 -17.724184 -1.891226 -1.97438 5e-06 0.0 0.0 -0.2701 0.051582 0.007618 -0.227535 0.267731 0.004033 -0.215304 -0.156609 0.009487 -18.615208 -66.563057 17.859993 90.640747 -7.562737 -36.091721 4.463812 -0.883186 -0.05216 82.709061 81.135056 88.109543 17.636641 -26.322737 52.411205 -19.46666 -14.395597 29.410389 1e-06 -8.774822 -3e-06 15.529648 -17.608734 6.249297 -0.609777 -1.795654 -3.889327 -4.80709 -11.046809 -2.93785 4e-06 -20.976017 0.0 -5.01997 -25.033556 -4.031881 6e-06 -2e-06 -1e-06 -10.634537 -5.686971 -3.565588 10.573276 -17.922953 -3.1139 3e-06 -13.821211 1e-06 -0.501778 -31.181505 -4.027016 -10.398914 -58.560074 6.668765 -13.982716 -7.150198 -2.875042 13.772729 -8.401491 -3.21824 0.347733 -34.211552 0.771655 -0.963029 -17.73337 2.62102 0.0 -1e-06 0.0 -17.346422 -20.095221 -4.20178 21.757561 -1.638374 3.86643 1e-06 -6.338826 1e-06 -1.69759 -22.591743 -6.194006 0.0 -5e-06 -2e-06 163.723267 -63.434605 15.677023 90.657814 -10.141994 -41.205669 3.878991 -0.313289 -0.003669 83.556778 68.566719 85.392502 22.182121 -20.375891 49.933319 -16.701813 -16.74353 28.47653 -2e-06 -12.690602 -2e-06 15.760829 -16.419621 2.593873 -0.10592 -1.513856 -4.275882 -5.039042 -5.612873 -2.953556 4e-06 -11.020524 -2e-06 -6.1113 -15.895334 -3.840472 -1e-06 -2e-06 0.0 -10.283373 -5.680289 -4.341839 11.028296 -11.302404 -2.372633 -1.38427 -14.238584 -6.320123 -0.625438 -26.924191 -3.827604 -4.262826 -48.25415 -3.968462 -13.708527 -7.363477 -3.720939 18.14115 -14.052739 -3.242674 6e-06 -18.78727 -3e-06 -0.429712 -8.456043 2.555503 -0.0 1e-06 0.0 -15.923539 -20.094486 -5.473586 30.419218 -7.190824 1.735929 3e-06 -8.162927 -1e-06 -1.861902 -22.861473 -6.167945 -0.0 -2e-06 -1e-06 125.609367 -0.589016 5.296152 106.238464 -0.174374 0.255052 -75.830223 19.064178 -10.970224 -18.145166 1.458802 1.784224 -0.999999 -0.0 0.0 -55.973949 -9.17977 1.073973 110.832802 -0.8789 -0.047547 -79.754082 4.03921 -3.318743 -20.931902 0.844288 1.594779 -1.000003 0.0 0.0 
0.0 0.0 0.0 0.0 -0.0 0.0 1.192841 49.234051 5.929677 95.583 -56.364357 87.532051 14.782559 0.795775 -0.483826 -4.644448 -0.062834 -0.500394 19.556656 0.466689 -2.890719 33.153385 -4.309933 1.39226 -2.817606 0.379519 -0.510175 -17.704021 -1.964265 -2.023296 6e-06 0.0 -0.0 -0.263024 0.026924 0.003625 -0.239394 0.238228 -0.008893 -0.225438 -0.174362 0.011107 -18.244322 -66.527229 17.689337 90.801498 -7.46732 -36.540951 4.464518 -0.777093 -0.047425 81.302155 80.598053 86.239594 17.636623 -26.322721 52.411186 -19.466656 -14.395597 29.410389 1e-06 -8.774821 -2e-06 15.568242 -17.661753 6.169296 -0.609776 -1.795653 -3.889328 -4.807089 -11.046809 -2.93785 4e-06 -20.976017 -0.0 -5.019969 -25.033556 -4.03188 6e-06 -1e-06 -1e-06 -10.634533 -5.686969 -3.565587 10.573272 -17.922949 -3.113901 3e-06 -13.821206 1e-06 -0.501777 -31.181498 -4.027015 -10.311605 -58.605293 6.575204 -13.982712 -7.150197 -2.875041 13.772727 -8.401491 -3.218242 0.347733 -34.211552 0.771654 -0.963028 -17.733366 2.621019 0.0 -1e-06 0.0 -17.346416 -20.095213 -4.201782 21.757555 -1.638375 3.866426 1e-06 -6.338823 1e-06 -1.697589 -22.591738 -6.194006 -0.0 -5e-06 -2e-06 163.919617 -63.38271 15.729712 90.45919 -10.084209 -41.070747 3.77321 -0.253979 -0.000831 83.79287 68.475174 85.804642 22.182114 -20.375893 49.933319 -16.701807 -16.743528 28.476522 -3e-06 -12.6906 -0.0 15.746469 -16.327801 2.62024 -0.10592 -1.513855 -4.275881 -5.039041 -5.612871 -2.953556 4e-06 -11.020521 -2e-06 -6.111297 -15.895332 -3.84047 -1e-06 -1e-06 1e-06 -10.283371 -5.680287 -4.341837 11.028294 -11.302402 -2.372632 -1.38427 -14.238579 -6.320119 -0.625439 -26.924183 -3.8276 -4.259056 -48.293625 -3.911004 -13.708525 -7.363474 -3.720939 18.141148 -14.052739 -3.242674 6e-06 -18.787268 -1e-06 -0.429712 -8.456042 2.555504 0.0 1e-06 -0.0 -15.923536 -20.094482 -5.473584 30.41921 -7.190821 1.735928 3e-06 -8.162926 -0.0 -1.861903 -22.861471 -6.167942 -0.0 -3e-06 -1e-06 125.711754 -0.396991 5.242555 106.232353 -0.179591 0.255153 -75.894753 18.851736 -10.876915 -18.186583 1.462605 1.767431 -0.999999 0.0 0.0 -55.894939 -9.267891 1.17957 110.739716 -0.90213 -0.033909 -79.637512 4.263855 -3.378256 -20.633739 0.833524 1.600962 -1.000002 -0.0 0.0 
0.0 0.0 0.0 0.0 -0.0 0.0 1.307084 49.21368 5.913986 95.530838 -56.4156 87.588272 14.719213 0.81663 -0.458441 -4.684729 -0.021872 -0.441431 19.576929 0.508627 -2.844664 33.177101 -4.347044 1.302295 -2.809859 0.350418 -0.513367 -17.749594 -2.001818 -2.005139 6e-06 -0.0 0.0 -0.260301 0.013538 0.001121 -0.287138 0.222425 -0.024431 -0.260987 -0.185758 0.01904 -18.028698 -66.439705 17.601032 90.903931 -7.408613 -36.891243 4.57182 -0.703255 -0.046757 80.278687 80.267563 85.205338 17.636635 -26.322733 52.411194 -19.466665 -14.395597 29.410395 -0.0 -8.774822 -2e-06 15.550746 -17.644697 6.141414 -0.609776 -1.795654 -3.889328 -4.807088 -11.046813 -2.93785 5e-06 -20.976025 0.0 -5.019972 -25.033566 -4.031879 5e-06 -3e-06 -1e-06 -10.634536 -5.686972 -3.565588 10.573276 -17.922955 -3.113901 3e-06 -13.821213 1e-06 -0.501777 -31.181511 -4.027017 -10.1916 -58.597206 6.439881 -13.982716 -7.150198 -2.875043 13.77273 -8.401495 -3.218241 0.347735 -34.211555 0.771654 -0.963028 -17.733372 2.62102 0.0 -0.0 0.0 -17.346422 -20.095221 -4.201782 21.757557 -1.638378 3.866428 1e-06 -6.338825 1e-06 -1.697589 -22.591747 -6.194006 -0.0 -5e-06 -2e-06 163.999161 -63.339222 15.755923 90.258408 -10.181236 -40.938938 3.885512 -0.228397 -0.00116 84.116493 68.428658 86.439926 22.182123 -20.375898 49.933331 -16.701817 -16.74353 28.476532 -2e-06 -12.690605 -1e-06 15.799406 -16.270306 2.642696 -0.105919 -1.513857 -4.275882 -5.039042 -5.612873 -2.953557 4e-06 -11.020526 -2e-06 -6.111302 -15.895338 -3.840472 -0.0 -2e-06 -0.0 -10.283373 -5.68029 -4.34184 11.028297 -11.302405 -2.372633 -1.38427 -14.238583 -6.320122 -0.625439 -26.924194 -3.827602 -4.234867 -48.392044 -3.83172 -13.708529 -7.363479 -3.72094 18.141155 -14.052742 -3.242675 5e-06 -18.78727 -2e-06 -0.429712 -8.456044 2.555504 0.0 1e-06 -0.0 -15.923543 -20.094486 -5.473586 30.419224 -7.190827 1.735927 2e-06 -8.162927 -0.0 -1.861904 -22.861469 -6.167942 -1e-06 -2e-06 -1e-06 125.643173 -0.238821 5.266969 106.32814 -0.16808 0.262089 -76.131866 18.726358 -10.861073 -18.434666 1.458709 1.76483 -1.0 -0.0 1e-06 -55.957783 -9.367238 1.273646 110.766487 -0.865272 -0.010379 -79.687935 4.384348 -3.54696 -20.649977 0.833527 1.60317 -1.000001 -0.0 -0.0 
